<svg width="32" height="32" viewBox="0 0 32 32" fill="none" xmlns="http://www.w3.org/2000/svg">
<rect width="32" height="32" fill="#81B3D3"/>
<path d="M11.0009 19.6539C11.0223 19.6755 11.0331 19.6969 11.0331 19.7185C11.0548 19.7185 11.0762 19.729 11.0976 19.7506C11.678 20.3944 12.334 20.9954 13.065 21.5535C13.7959 22.0899 14.6347 22.3796 15.5806 22.4226C15.6023 22.4226 15.6236 22.4337 15.645 22.455H15.7419C15.7633 22.455 15.785 22.4656 15.8064 22.4872H16.161C16.2688 22.4656 16.3654 22.4442 16.4515 22.4226C16.7962 22.358 17.1249 22.2268 17.4191 22.0364C17.7413 21.8432 17.9887 21.607 18.1606 21.3281L18.2254 21.1992L18.2898 21.0705C18.3328 20.9203 18.365 20.7808 18.3867 20.6519C18.4081 20.5233 18.4189 20.4052 18.4189 20.2979C18.4189 19.7185 18.1606 19.2355 17.6449 18.8491C17.164 18.4491 16.6187 18.1334 16.0322 17.9154C15.8116 17.8341 15.5851 17.7696 15.3548 17.7224C15.1526 17.6614 14.9482 17.6076 14.7421 17.5614H14.6777C14.656 17.54 14.6347 17.5292 14.6133 17.5292C13.5675 17.2748 12.5668 16.8623 11.6461 16.3058C10.7213 15.7264 10.0872 14.8999 9.74311 13.8268C9.67572 13.6022 9.61119 13.3768 9.54954 13.1506C9.50539 12.9056 9.47314 12.6586 9.45289 12.4104C9.43307 12.3368 9.42226 12.261 9.42067 12.1848V11.4121C9.44206 11.2405 9.47427 11.0689 9.51732 10.897C9.58409 10.4586 9.69204 10.0275 9.83976 9.60929C9.99028 9.18014 10.1839 8.79368 10.4202 8.45047C11.1084 7.31271 11.9899 6.4971 13.065 6.00363C14.1617 5.50989 15.3012 5.26315 16.4837 5.26315C16.7634 5.26315 17.0428 5.2845 17.3225 5.32747C17.6245 5.34901 17.9256 5.38119 18.2254 5.42395C19.0096 5.55564 19.7774 5.77156 20.5152 6.06795C21.2892 6.36847 21.9988 6.72249 22.6439 7.1303L20.8701 11.0903C20.2912 10.6621 19.6761 10.2851 19.0316 9.96359C18.3867 9.64145 17.688 9.48065 16.9353 9.48065H16.677C16.1827 9.54497 15.7206 9.77036 15.2904 10.1565C14.8604 10.5214 14.6455 10.9186 14.6455 11.3478V11.541C14.6669 11.6053 14.6991 11.6697 14.7421 11.7343C14.7852 11.8845 14.8604 12.024 14.9679 12.1529C15.0754 12.2815 15.1937 12.3996 15.3226 12.5069C15.5592 12.7001 15.903 12.8825 16.3549 13.0541C16.8062 13.2044 17.2794 13.3547 17.7741 13.5049C18.1823 13.6122 18.58 13.7195 18.9672 13.8268C19.3543 13.9127 19.6767 13.9987 19.9347 14.0846C21.1387 14.5138 22.0418 15.2326 22.6439 16.2415C23.2458 17.2287 23.5577 18.2805 23.579 19.3963V19.5574C23.579 19.6863 23.5685 19.8152 23.5468 19.9439V20.2979C23.418 21.414 23.0525 22.4764 22.4504 23.4852C21.8699 24.494 21.0851 25.2667 20.0961 25.8034C19.729 25.9756 19.352 26.1261 18.9672 26.2539C18.5828 26.3606 18.1957 26.4573 17.8063 26.5439C17.4869 26.6078 17.1637 26.6508 16.8387 26.6725C16.5287 26.7146 16.2162 26.7361 15.9033 26.7368H15.5484C14.2583 26.6941 12.99 26.415 11.7427 25.8996C10.4957 25.3632 9.38845 24.6548 8.42114 23.7749L11.0009 19.6539Z" fill="white"/>
</svg>
