<svg width="32" height="32" fill="none" xmlns="http://www.w3.org/2000/svg"><path fill="#81B3D3" d="M0 0h32v32H0z"/><path d="M11 19.654c.022.021.033.043.033.064.022 0 .043.011.065.033a14.42 14.42 0 0 0 1.967 1.802c.73.537 1.57.827 2.516.87.021 0 .043.01.064.032h.097c.021 0 .043.01.064.032h.355a6.25 6.25 0 0 0 .29-.064c.345-.065.674-.196.968-.387.322-.193.57-.429.742-.708l.064-.129.065-.129c.043-.15.075-.29.097-.418.021-.129.032-.247.032-.354 0-.58-.258-1.063-.774-1.449a5.54 5.54 0 0 0-1.613-.934 4.671 4.671 0 0 0-.677-.193 8.743 8.743 0 0 0-.613-.16h-.064c-.022-.022-.043-.033-.065-.033a10.563 10.563 0 0 1-2.967-1.223c-.925-.58-1.559-1.406-1.903-2.48-.067-.224-.132-.45-.193-.675a7.708 7.708 0 0 1-.097-.74.944.944 0 0 1-.032-.226v-.773c.021-.171.053-.343.096-.515.067-.438.175-.87.323-1.288.15-.429.344-.815.58-1.159.688-1.137 1.57-1.953 2.645-2.446a8.24 8.24 0 0 1 3.419-.74c.28 0 .559.02.838.063.303.022.604.054.903.097.785.132 1.552.348 2.29.644.774.3 1.484.654 2.129 1.062l-1.774 3.96a12.398 12.398 0 0 0-1.838-1.126 4.625 4.625 0 0 0-2.097-.483h-.258c-.494.064-.956.29-1.387.675-.43.365-.644.763-.644 1.192v.193a.814.814 0 0 0 .096.193c.043.15.118.29.226.419.107.128.226.247.355.354.236.193.58.376 1.032.547.451.15.924.3 1.42.45.407.108.805.216 1.192.323.387.086.71.172.968.258 1.204.429 2.107 1.148 2.709 2.156.602.988.914 2.04.935 3.155v.161c0 .13-.01.258-.032.387v.354a7.939 7.939 0 0 1-1.097 3.187 5.957 5.957 0 0 1-2.354 2.318c-.367.173-.744.323-1.129.45-.384.108-.771.204-1.16.29-.32.065-.643.108-.968.13-.31.042-.623.063-.936.064h-.355a10.836 10.836 0 0 1-3.805-.837 11.858 11.858 0 0 1-3.322-2.125l2.58-4.121Z" fill="#fff"/></svg>